<mxfile host="app.diagrams.net" agent="Mozilla/5.0 (Windows NT 10.0; Win64; x64) AppleWebKit/537.36 (KHTML, like Gecko) Chrome/133.0.0.0 Safari/537.36" version="26.1.0">
  <diagram id="Ht1M8jgEwFfnCIfOTk4-" name="Page-1">
    <mxGraphModel dx="1793" dy="1097" grid="1" gridSize="10" guides="1" tooltips="1" connect="1" arrows="1" fold="1" page="1" pageScale="1" pageWidth="1169" pageHeight="827" math="0" shadow="0">
      <root>
        <mxCell id="0" />
        <mxCell id="1" parent="0" />
        <mxCell id="18lQT1Qj__3V_frlPAut-39" style="edgeStyle=orthogonalEdgeStyle;rounded=0;orthogonalLoop=1;jettySize=auto;html=1;" edge="1" parent="1" source="18lQT1Qj__3V_frlPAut-2">
          <mxGeometry relative="1" as="geometry">
            <mxPoint x="240" y="710" as="targetPoint" />
          </mxGeometry>
        </mxCell>
        <mxCell id="18lQT1Qj__3V_frlPAut-2" value="" style="strokeColor=#dddddd;shadow=1;strokeWidth=1;rounded=1;absoluteArcSize=1;arcSize=2;" vertex="1" parent="1">
          <mxGeometry x="220" y="530" width="150" height="50" as="geometry" />
        </mxCell>
        <mxCell id="18lQT1Qj__3V_frlPAut-3" value="Cloud Run" style="editableCssRules=.*;html=1;fontColor=#999999;shape=image;verticalLabelPosition=middle;verticalAlign=middle;labelPosition=right;align=left;spacingLeft=20;part=1;points=[];imageAspect=0;image=data:image/svg+xml,PHN2ZyB4bWxucz0iaHR0cDovL3d3dy53My5vcmcvMjAwMC9zdmciIHhtbG5zOnY9Imh0dHBzOi8vdmVjdGEuaW8vbmFubyIgd2lkdGg9IjM2NS40NjQ5OTY3NzA0MjQ5MyIgaGVpZ2h0PSIzNzkuMjIyOTk0NDYzNTc3OTUiIHZpZXdCb3g9IjAgMCA5Ni42OTU5OTkxNDU1MDc4MSAxMDAuMzM1OTk4NTM1MTU2MjUiPiYjeGE7PHN0eWxlIHR5cGU9InRleHQvY3NzIj4mI3hhOwkuc3Qwe2ZpbGw6IzQyODVmNDt9JiN4YTsJLnN0MXtmaWxsOiNhZWNiZmE7fSYjeGE7PC9zdHlsZT4mI3hhOwk8cGF0aCBjbGFzcz0ic3QwIiBkPSJNMjkuNzk0IDEwMC4zMzZMNDYuOTIgNTAuMTY4aDQ5Ljc3NnpNMCA5OS42NzFsMTIuOTc2LTQ5LjUwMkgyOS4yMkwxNi44OTcgOTIuMDU0eiIvPiYjeGE7CTxwYXRoIGNsYXNzPSJzdDEiIGQ9Ik0yOS43OTQgMEw0Ni45MiA1MC4xNjhoNDkuNzc2ek0wIC42NjZsMTIuOTc2IDQ5LjUwMkgyOS4yMkwxNi44OTcgOC4yODN6Ii8+JiN4YTs8L3N2Zz4=;" vertex="1" parent="18lQT1Qj__3V_frlPAut-2">
          <mxGeometry width="30" height="30" relative="1" as="geometry">
            <mxPoint x="15" y="15" as="offset" />
          </mxGeometry>
        </mxCell>
        <mxCell id="18lQT1Qj__3V_frlPAut-9" value="" style="edgeStyle=orthogonalEdgeStyle;rounded=0;orthogonalLoop=1;jettySize=auto;html=1;" edge="1" parent="1" source="18lQT1Qj__3V_frlPAut-4" target="18lQT1Qj__3V_frlPAut-5">
          <mxGeometry relative="1" as="geometry">
            <Array as="points">
              <mxPoint x="190" y="410" />
              <mxPoint x="251" y="410" />
            </Array>
          </mxGeometry>
        </mxCell>
        <mxCell id="18lQT1Qj__3V_frlPAut-4" value="" style="image;aspect=fixed;perimeter=ellipsePerimeter;html=1;align=center;shadow=0;dashed=0;fontColor=#4277BB;labelBackgroundColor=default;fontSize=12;spacingTop=3;image=img/lib/ibm/infrastructure/mobile_backend.svg;" vertex="1" parent="1">
          <mxGeometry x="160" y="340" width="60" height="60" as="geometry" />
        </mxCell>
        <mxCell id="18lQT1Qj__3V_frlPAut-10" value="" style="edgeStyle=orthogonalEdgeStyle;rounded=0;orthogonalLoop=1;jettySize=auto;html=1;" edge="1" parent="1" source="18lQT1Qj__3V_frlPAut-5" target="18lQT1Qj__3V_frlPAut-3">
          <mxGeometry relative="1" as="geometry" />
        </mxCell>
        <mxCell id="18lQT1Qj__3V_frlPAut-5" value="" style="image;sketch=0;aspect=fixed;html=1;points=[];align=center;fontSize=12;image=img/lib/mscae/Docker.svg;" vertex="1" parent="1">
          <mxGeometry x="211.2" y="430" width="80" height="65.6" as="geometry" />
        </mxCell>
        <mxCell id="18lQT1Qj__3V_frlPAut-11" value="" style="sketch=0;points=[[0,0,0],[0.25,0,0],[0.5,0,0],[0.75,0,0],[1,0,0],[0,1,0],[0.25,1,0],[0.5,1,0],[0.75,1,0],[1,1,0],[0,0.25,0],[0,0.5,0],[0,0.75,0],[1,0.25,0],[1,0.5,0],[1,0.75,0]];outlineConnect=0;fontColor=#232F3E;fillColor=#DD344C;strokeColor=#ffffff;dashed=0;verticalLabelPosition=bottom;verticalAlign=top;align=center;html=1;fontSize=12;fontStyle=0;aspect=fixed;shape=mxgraph.aws4.resourceIcon;resIcon=mxgraph.aws4.amplify;" vertex="1" parent="1">
          <mxGeometry x="630" y="280" width="78" height="78" as="geometry" />
        </mxCell>
        <mxCell id="18lQT1Qj__3V_frlPAut-12" value="" style="outlineConnect=0;dashed=0;verticalLabelPosition=bottom;verticalAlign=top;align=center;html=1;shape=mxgraph.aws3.cognito;fillColor=#AD688B;gradientColor=none;" vertex="1" parent="1">
          <mxGeometry x="630" y="447" width="76.5" height="93" as="geometry" />
        </mxCell>
        <mxCell id="18lQT1Qj__3V_frlPAut-13" value="" style="dashed=0;outlineConnect=0;html=1;align=center;labelPosition=center;verticalLabelPosition=bottom;verticalAlign=top;shape=mxgraph.webicons.mongodb;gradientColor=#DFDEDE" vertex="1" parent="1">
          <mxGeometry x="200" y="716.5" width="102.4" height="102.4" as="geometry" />
        </mxCell>
        <mxCell id="18lQT1Qj__3V_frlPAut-14" value="" style="sketch=0;points=[[0,0,0],[0.25,0,0],[0.5,0,0],[0.75,0,0],[1,0,0],[0,1,0],[0.25,1,0],[0.5,1,0],[0.75,1,0],[1,1,0],[0,0.25,0],[0,0.5,0],[0,0.75,0],[1,0.25,0],[1,0.5,0],[1,0.75,0]];outlineConnect=0;fontColor=#232F3E;fillColor=#ED7100;strokeColor=#ffffff;dashed=0;verticalLabelPosition=bottom;verticalAlign=top;align=center;html=1;fontSize=12;fontStyle=0;aspect=fixed;shape=mxgraph.aws4.resourceIcon;resIcon=mxgraph.aws4.lambda;" vertex="1" parent="1">
          <mxGeometry x="800" y="550" width="78" height="78" as="geometry" />
        </mxCell>
        <mxCell id="18lQT1Qj__3V_frlPAut-45" style="edgeStyle=orthogonalEdgeStyle;rounded=0;orthogonalLoop=1;jettySize=auto;html=1;" edge="1" parent="1" source="18lQT1Qj__3V_frlPAut-15" target="18lQT1Qj__3V_frlPAut-43">
          <mxGeometry relative="1" as="geometry" />
        </mxCell>
        <mxCell id="18lQT1Qj__3V_frlPAut-15" value="" style="outlineConnect=0;dashed=0;verticalLabelPosition=bottom;verticalAlign=top;align=center;html=1;shape=mxgraph.aws3.sns;fillColor=#D9A741;gradientColor=none;" vertex="1" parent="1">
          <mxGeometry x="630.75" y="640" width="76.5" height="76.5" as="geometry" />
        </mxCell>
        <mxCell id="18lQT1Qj__3V_frlPAut-16" style="edgeStyle=orthogonalEdgeStyle;rounded=0;orthogonalLoop=1;jettySize=auto;html=1;exitX=1;exitY=0.74;exitDx=0;exitDy=0;exitPerimeter=0;entryX=0.5;entryY=1;entryDx=0;entryDy=0;entryPerimeter=0;" edge="1" parent="1" source="18lQT1Qj__3V_frlPAut-15" target="18lQT1Qj__3V_frlPAut-14">
          <mxGeometry relative="1" as="geometry" />
        </mxCell>
        <mxCell id="18lQT1Qj__3V_frlPAut-28" style="edgeStyle=orthogonalEdgeStyle;rounded=0;orthogonalLoop=1;jettySize=auto;html=1;" edge="1" parent="1" source="18lQT1Qj__3V_frlPAut-20" target="18lQT1Qj__3V_frlPAut-24">
          <mxGeometry relative="1" as="geometry" />
        </mxCell>
        <mxCell id="18lQT1Qj__3V_frlPAut-36" style="edgeStyle=orthogonalEdgeStyle;rounded=0;orthogonalLoop=1;jettySize=auto;html=1;" edge="1" parent="1" source="18lQT1Qj__3V_frlPAut-20" target="18lQT1Qj__3V_frlPAut-5">
          <mxGeometry relative="1" as="geometry" />
        </mxCell>
        <mxCell id="18lQT1Qj__3V_frlPAut-20" value="" style="shape=image;html=1;verticalAlign=top;verticalLabelPosition=bottom;labelBackgroundColor=#ffffff;imageAspect=0;aspect=fixed;image=https://cdn4.iconfinder.com/data/icons/ionicons/512/icon-social-github-128.png" vertex="1" parent="1">
          <mxGeometry x="380" y="22" width="128" height="128" as="geometry" />
        </mxCell>
        <mxCell id="18lQT1Qj__3V_frlPAut-27" value="" style="edgeStyle=orthogonalEdgeStyle;rounded=0;orthogonalLoop=1;jettySize=auto;html=1;" edge="1" parent="1" source="18lQT1Qj__3V_frlPAut-24" target="18lQT1Qj__3V_frlPAut-11">
          <mxGeometry relative="1" as="geometry" />
        </mxCell>
        <mxCell id="18lQT1Qj__3V_frlPAut-24" value="" style="shape=image;html=1;verticalAlign=top;verticalLabelPosition=bottom;labelBackgroundColor=#ffffff;imageAspect=0;aspect=fixed;image=https://cdn1.iconfinder.com/data/icons/ionicons-fill-vol-2/512/logo-react-128.png" vertex="1" parent="1">
          <mxGeometry x="635" y="150" width="73" height="73" as="geometry" />
        </mxCell>
        <mxCell id="18lQT1Qj__3V_frlPAut-26" value="" style="edgeStyle=orthogonalEdgeStyle;rounded=0;orthogonalLoop=1;jettySize=auto;html=1;" edge="1" parent="1" source="18lQT1Qj__3V_frlPAut-25" target="18lQT1Qj__3V_frlPAut-4">
          <mxGeometry relative="1" as="geometry" />
        </mxCell>
        <mxCell id="18lQT1Qj__3V_frlPAut-25" value="" style="points=[];aspect=fixed;html=1;align=center;shadow=0;dashed=0;fillColor=#FF6A00;strokeColor=none;shape=mxgraph.alibaba_cloud.nodejs_performance_platform;" vertex="1" parent="1">
          <mxGeometry x="169" y="250" width="42" height="47.400000000000006" as="geometry" />
        </mxCell>
        <mxCell id="18lQT1Qj__3V_frlPAut-40" style="edgeStyle=orthogonalEdgeStyle;rounded=0;orthogonalLoop=1;jettySize=auto;html=1;entryX=0;entryY=0.5;entryDx=0;entryDy=0;entryPerimeter=0;" edge="1" parent="1" source="18lQT1Qj__3V_frlPAut-2" target="18lQT1Qj__3V_frlPAut-12">
          <mxGeometry relative="1" as="geometry" />
        </mxCell>
        <mxCell id="18lQT1Qj__3V_frlPAut-41" style="edgeStyle=orthogonalEdgeStyle;rounded=0;orthogonalLoop=1;jettySize=auto;html=1;entryX=0.71;entryY=1;entryDx=0;entryDy=0;entryPerimeter=0;" edge="1" parent="1" source="18lQT1Qj__3V_frlPAut-2" target="18lQT1Qj__3V_frlPAut-15">
          <mxGeometry relative="1" as="geometry" />
        </mxCell>
        <mxCell id="18lQT1Qj__3V_frlPAut-42" style="edgeStyle=orthogonalEdgeStyle;rounded=0;orthogonalLoop=1;jettySize=auto;html=1;entryX=0;entryY=0.5;entryDx=0;entryDy=0;entryPerimeter=0;" edge="1" parent="1" source="18lQT1Qj__3V_frlPAut-5" target="18lQT1Qj__3V_frlPAut-11">
          <mxGeometry relative="1" as="geometry" />
        </mxCell>
        <mxCell id="18lQT1Qj__3V_frlPAut-43" value="" style="sketch=0;outlineConnect=0;fontColor=#232F3E;gradientColor=none;fillColor=#232F3D;strokeColor=none;dashed=0;verticalLabelPosition=bottom;verticalAlign=top;align=center;html=1;fontSize=12;fontStyle=0;aspect=fixed;pointerEvents=1;shape=mxgraph.aws4.users;" vertex="1" parent="1">
          <mxGeometry x="1010" y="130" width="78" height="78" as="geometry" />
        </mxCell>
        <mxCell id="18lQT1Qj__3V_frlPAut-44" style="edgeStyle=orthogonalEdgeStyle;rounded=0;orthogonalLoop=1;jettySize=auto;html=1;entryX=1;entryY=0.75;entryDx=0;entryDy=0;entryPerimeter=0;" edge="1" parent="1" source="18lQT1Qj__3V_frlPAut-43" target="18lQT1Qj__3V_frlPAut-11">
          <mxGeometry relative="1" as="geometry" />
        </mxCell>
      </root>
    </mxGraphModel>
  </diagram>
</mxfile>
